PathFileType	4	(X/Y/Z)	C:/Users/beibeiliu/ov580/test_trc\sequence.27_training_dense_right.trc
DataRate	CameraRate	NumFrames	NumMarkers	Units	OrigDataRate	OrigDataStartFrame	OrigNumFrames
120	120	8	19	mm	120	290	331
Frame#	Time	ThumbCMC			ThumbMCP			ThumbIP			ThumbTip			IndexMCP			IndexPIP			IndexTip			MiddleMCP			MiddlePIP			MiddleTip			RingMCP			RingPIP			RingTip			PinkyMCP			PinkyPIP			PinkyTip			BackHand1			BackHand2			BackHand3	
		X0	Y0	Z0	X1	Y1	Z1	X2	Y2	Z2	X3	Y3	Z3	X4	Y4	Z4	X5	Y5	Z5	X6	Y6	Z6	X7	Y7	Z7	X8	Y8	Z8	X9	Y9	Z9	X10	Y10	Z10	X11	Y11	Z11	X12	Y12	Z12	X13	Y13	Z13	X14	Y14	Z14	X15	Y15	Z15	X16	Y16	Z16	X17	Y17	Z17	X18	Y18	Z18	
289	2.40833	228.355	34.8281	57.4993	235.44	58.6299	38.9038	236.488	73.6497	20.3387	227.157	82.3885	2.35027	225.519	32.8517	-7.76472	218.399	53.2483	-25.1341	214.987	78.3291	-26.7812	205.436	19.4642	-14.2548	198.495	26.4077	-36.9546	194.971	40.657	-61.2207	183.222	24.6358	-10.4235	179.016	42.393	-29.4518	179.302	67.0002	-32.7611	162.033	18.7759	2.86583	160.669	22.4828	-13.5856	154.963	23.2054	-28.152	183.072	6.62524	38.343	185.009	1.33899	62.101	213.916	5.75814	47.2345	
290	2.41667	230.225	33.9082	58.2215	235.674	58.157	37.0503	235.611	71.0283	16.9671	231.208	83.1297	-1.27316	227.465	34.4954	-9.83246	219.564	56.6746	-25.0182	213.908	78.2053	-23.2251	203.766	18.9613	-16.542	201.466	26.8067	-40.0505	197.605	41.4547	-63.0328	185.571	23.269	-8.12466	181.042	40.0864	-29.5717	183.549	61.9166	-39.0798	162.452	19.4641	8.42083	162.36	22.944	-13.8199	152.168	22.2266	-30.5979	183.48	6.10142	36.5788	185.476	1.32776	60.8573	213.545	5.53596	46.3858	
291	2.425	227.61	32.9564	55.8652	238.075	57.2624	37.8909	235.84	68.0648	19.5696	234.805	83.1526	-0.47604	225.522	32.6859	-8.29146	220.525	54.5083	-22.2057	215.299	82.5134	-16.4704	202.307	17.5143	-12.4984	202.036	25.5897	-38.8663	199.9	38.4625	-61.4474	184.863	22.9052	-11.416	182.655	35.3365	-28.0904	185.631	59.1556	-40.7084	163.383	19.9744	7.52477	159.069	21.9685	-12.7673	152.21	21.0457	-29.9585	185.887	4.8616	36.2722	188.181	3.18005	59.0827	211.905	3.84618	50.2684	
292	2.43333	229.011	32.5826	58.1059	238.501	55.5995	41.9167	239.754	70.2486	17.6482	237.162	82.9329	0.232201	225.558	30.8415	-6.79042	221.467	54.552	-22.2701	215.927	80.8875	-13.2674	203.884	17.0179	-15.2592	202.713	23.399	-37.2923	196.326	37.9417	-62.8759	182.377	20.6844	-9.99851	183.172	37.8241	-31.2976	181.23	55.0539	-40.0153	166.836	18.2367	8.06317	159.606	20.7003	-13.919	155.767	19.2527	-30.8311	185.402	3.67446	32.9232	185.32	-0.191619	62.3783	213.27	3.85669	47.9637	
293	2.44167	230.279	33.252	55.0405	233.559	54.0322	39.5579	236.715	68.1668	21.9722	238.714	83.8864	3.31234	223.559	30.4706	-7.555	219.49	57.691	-21.8428	214.908	79.1879	-12.2311	202.359	15.4759	-13.4748	203.885	24.3669	-42.0931	199.29	36.1397	-62.6223	184.341	20.6911	-9.01033	180.966	36.001	-31.6594	182.638	55.6945	-42.0626	167.322	18.2014	3.54131	161.707	20.8405	-13.1554	156.65	20.367	-28.2543	187.74	5.81461	37.1137	185.567	-0.743188	63.758	215.286	5.34416	50.251	
294	2.45	227.816	33.1109	57.7171	235.736	55.8426	40.6388	236.636	68.7539	24.4478	235.65	83.0862	3.2237	221.741	30.5066	-8.06535	219.704	58.0799	-22.6706	214.251	79.3375	-11.4552	201.542	14.3	-13.854	199.51	23.8773	-41.8263	196.175	36.4555	-63.7022	185.89	17.6047	-6.46016	180.807	32.6225	-32.0535	183.193	52.321	-43.9404	162.793	16.3491	7.3397	157.045	18.6553	-11.8525	157.685	18.1853	-30.2687	186.355	2.65081	34.9961	188.205	0.594194	64.2605	212.577	3.01972	49.5841	
295	2.45833	228.375	33.2604	60.9384	233.44	55.6408	39.9901	236.124	69.8046	22.3056	233.472	83.445	2.80212	224.35	30.3637	-7.08647	219.12	57.1136	-23.1628	211.64	81.232	-11.2503	204.467	14.8127	-11.9991	202.134	21.2726	-38.4062	197.281	36.8213	-61.2531	184.432	15.8516	-8.29012	180.697	27.3198	-30.593	177.562	46.7078	-45.0441	163.553	15.9171	2.45508	157.398	18.3342	-13.8368	156.296	19.3924	-29.0388	186.627	5.00268	36.8973	186.385	-0.355721	59.8528	214.942	4.55032	47.1868	
296	2.46667	224.892	33.2263	57.7385	229.298	56.7514	38.8512	234.987	73.5068	19.1815	230.219	85.7112	1.46648	223.803	31.1098	-7.16713	218.347	52.8539	-23.9265	209.6	80.669	-13.6405	201.831	14.3039	-14.9169	202.284	22.9147	-40.0191	196.25	39.0862	-62.3068	185.026	13.7025	-10.2213	182.818	24.9468	-33.9649	179.074	40.8318	-46.0813	162.888	13.9154	2.79738	154.284	16.5887	-10.3346	148.534	16.5508	-32.7021	185.981	4.99071	37.6521	183.262	-0.507709	59.2768	214.664	4.26643	48.7117	
